<?xml version="1.0" encoding="UTF-8" standalone="no"?>
<!DOCTYPE svg PUBLIC "-//W3C//DTD SVG 1.1//EN" "http://www.w3.org/Graphics/SVG/1.1/DTD/svg11.dtd">
<svg width="102.86" height="102.86" viewBox="0.00 0.00 500.00 500.00" xmlns="http://www.w3.org/2000/svg" xmlns:xlink="http://www.w3.org/1999/xlink">
<g stroke-linecap="round" id="Layer_5">
<path d="M202.16,40.73 L192.69,447.02" fill="none" stroke="rgb(255, 255, 255)" stroke-width="35.00" stroke-opacity="1.00" stroke-linejoin="round"/>
<path d="M163.27,456.68 L172.67,46.05" fill="none" stroke="rgb(255, 255, 255)" stroke-width="35.00" stroke-opacity="1.00" stroke-linejoin="round"/>
<path d="M126.21,56.75 L144.68,434.78" fill="none" stroke="rgb(255, 255, 255)" stroke-width="35.00" stroke-opacity="1.00" stroke-linejoin="round"/>
<path d="M153.83,48.21 L153.69,210.53" fill="none" stroke="rgb(255, 255, 255)" stroke-width="35.00" stroke-opacity="1.00" stroke-linejoin="round"/>
<path d="M121.15,120.89 L69.91,128.29" fill="none" stroke="rgb(255, 255, 255)" stroke-width="35.00" stroke-opacity="1.00" stroke-linejoin="round"/>
<path d="M69.91,128.29 L69.64,184.99" fill="none" stroke="rgb(255, 255, 255)" stroke-width="35.00" stroke-opacity="1.00" stroke-linejoin="round"/>
<path d="M69.64,184.99 L116.05,134.35" fill="none" stroke="rgb(255, 255, 255)" stroke-width="35.00" stroke-opacity="1.00" stroke-linejoin="round"/>
<path d="M81.37,192.95 L54.81,268.64" fill="none" stroke="rgb(255, 255, 255)" stroke-width="35.00" stroke-opacity="1.00" stroke-linejoin="round"/>
<path d="M54.81,268.64 L79.53,324.39" fill="none" stroke="rgb(255, 255, 255)" stroke-width="35.00" stroke-opacity="1.00" stroke-linejoin="round"/>
<path d="M79.53,324.39 L97.56,231.70" fill="none" stroke="rgb(255, 255, 255)" stroke-width="35.00" stroke-opacity="1.00" stroke-linejoin="round"/>
<path d="M99.40,233.72 L103.39,259.25" fill="none" stroke="rgb(255, 255, 255)" stroke-width="35.00" stroke-opacity="1.00" stroke-linejoin="round"/>
<path d="M79.49,256.61 L78.96,391.94" fill="none" stroke="rgb(255, 255, 255)" stroke-width="35.00" stroke-opacity="1.00" stroke-linejoin="round"/>
<path d="M80.82,391.94 L125.76,386.74" fill="none" stroke="rgb(255, 255, 255)" stroke-width="35.00" stroke-opacity="1.00" stroke-linejoin="round"/>
<path d="M125.76,386.74 L123.38,302.94" fill="none" stroke="rgb(255, 255, 255)" stroke-width="35.00" stroke-opacity="1.00" stroke-linejoin="round"/>
<path d="M107.75,289.05 L105.54,372.24" fill="none" stroke="rgb(255, 255, 255)" stroke-width="35.00" stroke-opacity="1.00" stroke-linejoin="round"/>
<path d="M102.80,142.53 L105.30,239.20" fill="none" stroke="rgb(255, 255, 255)" stroke-width="35.00" stroke-opacity="1.00" stroke-linejoin="round"/>
<path d="M217.72,226.31 L206.90,449.11" fill="none" stroke="rgb(255, 255, 255)" stroke-width="35.00" stroke-opacity="1.00" stroke-linejoin="round"/>
<path d="M234.18,58.53 C230.07,54.92 219.82,45.90 213.66,40.49 C209.09,36.46 202.44,31.73 198.51,29.75 C194.61,27.83 186.54,25.46 182.49,25.05 C178.60,24.68 171.15,25.21 167.58,25.97 C163.93,26.79 156.47,29.48 152.67,31.37 C139.99,37.75 118.82,55.78 113.93,60.93 C110.89,64.19 104.92,72.71 103.51,77.20 C102.53,80.50 103.00,93.87 103.06,96.02" fill="none" stroke="rgb(255, 148, 16)" stroke-width="35.00" stroke-opacity="1.00" stroke-linejoin="miter"/>
<path d="M103.06,96.02 C100.17,96.08 90.80,96.29 88.39,96.48 C83.70,96.88 76.25,98.82 72.70,100.60 C67.24,103.41 54.32,114.23 49.92,119.42 C47.50,122.32 43.47,129.36 42.24,132.85 C39.94,139.51 37.09,156.17 36.67,162.91 C36.45,166.63 36.54,175.57 36.80,178.12 C37.03,180.13 37.94,183.25 38.82,184.91 C40.56,188.07 46.06,193.03 49.83,195.25 C55.20,198.32 73.30,204.67 79.62,206.89" fill="none" stroke="rgb(255, 148, 16)" stroke-width="35.00" stroke-opacity="1.00" stroke-linejoin="miter"/>
<path d="M69.70,207.86 C47.13,222.12 37.60,228.78 32.19,234.05 C29.29,236.93 24.53,243.76 23.24,247.39 C22.22,250.42 21.83,258.10 22.02,261.52 C22.24,265.05 23.43,272.11 24.41,275.65 C25.39,279.13 28.35,286.74 30.11,289.60 C32.15,292.82 37.57,298.40 40.88,300.65 C47.16,304.84 62.42,310.45 69.00,312.83 C69.68,313.08 70.36,313.32 71.04,313.57" fill="none" stroke="rgb(255, 148, 16)" stroke-width="35.00" stroke-opacity="1.00" stroke-linejoin="miter"/>
<path d="M71.04,313.57 C64.76,325.97 53.97,347.44 51.52,355.19 C50.28,359.20 48.64,367.26 48.40,370.54 C48.11,375.00 48.99,383.38 50.16,387.28 C51.37,391.20 55.08,398.14 57.52,401.46 C59.72,404.41 64.20,408.70 66.67,410.21 C69.31,411.77 75.46,413.11 78.94,412.50 C82.37,411.85 101.08,401.91 108.86,397.83 C123.87,390.09 141.39,381.41 144.75,379.75" fill="none" stroke="rgb(255, 148, 16)" stroke-width="35.00" stroke-opacity="1.00" stroke-linejoin="miter"/>
<path d="M127.83,401.08 C126.76,407.40 123.69,425.48 123.78,431.81 C123.88,436.28 125.34,443.56 126.97,447.11 C128.61,450.58 132.63,455.35 136.06,458.60 C138.41,460.81 143.81,465.19 146.79,466.97 C149.98,468.83 156.24,471.19 159.93,471.89 C166.19,473.05 184.57,472.71 190.14,471.81 C193.99,471.16 201.63,468.44 204.93,466.56 C211.70,462.59 219.24,454.23 227.66,443.63 C228.51,442.57 230.03,440.66 230.71,439.81" fill="none" stroke="rgb(255, 148, 16)" stroke-width="35.00" stroke-opacity="1.00" stroke-linejoin="miter"/>
<path d="M233.83,58.60 L229.32,438.65" fill="none" stroke="rgb(255, 148, 16)" stroke-width="35.00" stroke-opacity="1.00" stroke-linejoin="round"/>
<path d="M97.84,95.52 Q178.32,129.24 97.84,95.52" fill="none" stroke="rgb(255, 148, 16)" stroke-width="35.00" stroke-opacity="1.00" stroke-linejoin="round"/>
<path d="M72.67,312.15 C94.63,296.69 103.79,290.54 111.40,287.32 C115.05,285.81 122.83,283.60 126.97,283.09 C131.33,282.59 140.11,283.30 144.12,284.47 C146.36,285.14 161.97,291.44 165.38,292.82 C165.38,292.82 176.41,304.79 176.41,304.79" fill="none" stroke="rgb(255, 148, 16)" stroke-width="35.00" stroke-opacity="1.00" stroke-linejoin="miter"/>
<path d="M134.54,165.20 C109.82,181.57 99.86,188.76 95.36,194.28 C92.98,197.28 90.23,203.42 90.33,206.72 C90.42,208.44 91.51,211.85 92.46,213.40 C94.67,216.88 109.52,230.97 114.66,234.28 C117.60,236.15 123.32,238.46 126.80,239.27 C132.53,240.56 150.06,240.90 157.39,239.96 C165.25,238.91 176.06,233.83 179.61,232.10" fill="none" stroke="rgb(255, 148, 16)" stroke-width="35.00" stroke-opacity="1.00" stroke-linejoin="miter"/>
<path d="M363.90,46.35 C367.19,46.36 374.84,47.98 378.33,49.40 C381.70,50.81 387.66,55.17 390.17,57.83 C392.92,60.79 396.22,66.34 397.48,70.13 C398.60,73.58 399.51,80.76 399.08,84.31 C398.60,87.95 396.22,95.19 394.58,97.97 C392.92,100.74 387.66,106.36 384.65,108.58 C381.70,110.72 374.84,113.55 371.21,114.33 C367.19,115.16 360.60,115.16 356.59,114.33 C352.96,113.55 346.10,110.72 343.15,108.58 C340.14,106.36 334.88,100.74 333.21,97.97 C331.58,95.19 329.20,87.95 328.72,84.31 C328.29,80.76 329.20,73.58 330.31,70.13 C331.58,66.34 334.88,60.79 337.62,57.83 C340.14,55.17 346.10,50.81 349.47,49.40 C352.96,47.98 360.60,46.36 363.90,46.35 Z" fill="none" stroke="rgb(255, 148, 16)" stroke-width="78.94" stroke-opacity="1.00" stroke-linejoin="round"/>
<path d="M318.02,213.44 C320.88,213.46 327.59,215.20 330.07,216.57 C332.53,217.97 337.44,222.75 338.88,225.14 C340.29,227.54 342.09,234.06 342.11,236.83 C342.09,239.60 340.29,246.12 338.88,248.53 C337.44,250.92 332.53,255.69 330.07,257.09 C327.59,258.46 320.88,260.21 318.02,260.23 C315.17,260.21 308.46,258.46 305.98,257.09 C303.52,255.69 298.61,250.92 297.17,248.53 C295.76,246.12 293.96,239.60 293.94,236.83 C293.96,234.06 295.76,227.54 297.17,225.14 C298.61,222.75 303.52,217.97 305.98,216.57 C308.46,215.20 315.17,213.46 318.02,213.44 Z" fill="none" stroke="rgb(255, 148, 16)" stroke-width="53.66" stroke-opacity="1.00" stroke-linejoin="round"/>
<path d="M440.02,185.44 C442.88,185.46 449.59,187.20 452.07,188.57 C454.53,189.97 459.44,194.75 460.88,197.14 C462.29,199.54 464.09,206.06 464.11,208.83 C464.09,211.60 462.29,218.12 460.88,220.53 C459.44,222.92 454.53,227.69 452.07,229.09 C449.59,230.46 442.88,232.21 440.02,232.23 C437.17,232.21 430.46,230.46 427.98,229.09 C425.52,227.69 420.61,222.92 419.17,220.53 C417.76,218.12 415.96,211.60 415.94,208.83 C415.96,206.06 417.76,199.54 419.17,197.14 C420.61,194.75 425.52,189.97 427.98,188.57 C430.46,187.20 437.17,185.46 440.02,185.44 Z" fill="none" stroke="rgb(255, 148, 16)" stroke-width="53.66" stroke-opacity="1.00" stroke-linejoin="round"/>
<path d="M305.54,344.50 C308.39,344.52 314.59,346.62 316.97,348.58 C319.56,350.78 322.41,355.59 323.08,358.87 C323.64,361.85 322.41,368.11 321.00,370.52 C319.56,372.91 314.59,377.07 311.65,378.09 C308.39,379.17 302.68,379.17 299.42,378.09 C296.49,377.07 291.52,372.91 290.07,370.52 C288.67,368.11 287.44,361.85 288.00,358.87 C288.67,355.59 291.52,350.78 294.11,348.58 C296.49,346.62 302.68,344.52 305.54,344.50 Z" fill="none" stroke="rgb(255, 148, 16)" stroke-width="39.79" stroke-opacity="1.00" stroke-linejoin="round"/>
<path d="M413.54,317.50 C416.39,317.52 422.59,319.62 424.97,321.58 C427.56,323.78 430.41,328.59 431.08,331.87 C431.64,334.85 430.41,341.11 429.00,343.52 C427.56,345.91 422.59,350.07 419.65,351.09 C416.39,352.17 410.68,352.17 407.42,351.09 C404.49,350.07 399.52,345.91 398.07,343.52 C396.67,341.11 395.44,334.85 396.00,331.87 C396.67,328.59 399.52,323.78 402.11,321.58 C404.49,319.62 410.68,317.52 413.54,317.50 Z" fill="none" stroke="rgb(255, 148, 16)" stroke-width="39.79" stroke-opacity="1.00" stroke-linejoin="round"/>
<path d="M380.54,422.50 C383.39,422.52 389.59,424.62 391.97,426.58 C394.56,428.78 397.41,433.59 398.08,436.87 C398.64,439.85 397.41,446.11 396.00,448.52 C394.56,450.91 389.59,455.07 386.65,456.09 C383.39,457.17 377.68,457.17 374.42,456.09 C371.49,455.07 366.52,450.91 365.07,448.52 C363.67,446.11 362.44,439.85 363.00,436.87 C363.67,433.59 366.52,428.78 369.11,426.58 C371.49,424.62 377.68,422.52 380.54,422.50 Z" fill="none" stroke="rgb(255, 148, 16)" stroke-width="39.79" stroke-opacity="1.00" stroke-linejoin="round"/>
<path d="M125.58,423.86 C127.12,418.08 132.18,399.12 133.99,395.05 C135.79,391.10 140.44,384.64 143.20,382.23 C146.36,379.56 153.72,376.08 157.99,375.23 C161.33,374.60 179.27,374.03 183.38,373.90" fill="none" stroke="rgb(255, 148, 16)" stroke-width="35.00" stroke-opacity="1.00" stroke-linejoin="miter"/>
<path d="M362.35,119.55 L310.54,234.68" fill="none" stroke="rgb(255, 148, 16)" stroke-width="35.00" stroke-opacity="1.00" stroke-linejoin="round"/>
<path d="M310.54,234.68 L310.54,234.68" fill="none" stroke="rgb(255, 148, 16)" stroke-width="35.00" stroke-opacity="1.00" stroke-linejoin="round"/>
<path d="M371.38,104.91 L442.80,228.72" fill="none" stroke="rgb(255, 148, 16)" stroke-width="35.00" stroke-opacity="1.00" stroke-linejoin="round"/>
<path d="M442.80,228.72 L442.80,228.72" fill="none" stroke="rgb(255, 148, 16)" stroke-width="35.00" stroke-opacity="1.00" stroke-linejoin="round"/>
<path d="M442.80,228.72 L416.06,331.70" fill="none" stroke="rgb(255, 148, 16)" stroke-width="35.00" stroke-opacity="1.00" stroke-linejoin="round"/>
<path d="M313.40,267.30 L309.54,366.67" fill="none" stroke="rgb(255, 148, 16)" stroke-width="35.00" stroke-opacity="1.00" stroke-linejoin="round"/>
<path d="M309.54,366.67 L380.01,446.93" fill="none" stroke="rgb(255, 148, 16)" stroke-width="35.00" stroke-opacity="1.00" stroke-linejoin="round"/>
<path d="M364.46,42.25 C367.98,42.27 376.14,44.06 379.87,45.62 C383.47,47.18 389.83,52.00 392.52,54.93 C395.45,58.20 398.96,64.32 400.32,68.50 C401.50,72.31 402.47,80.24 402.01,84.15 C401.50,88.17 398.95,96.16 397.21,99.22 C395.43,102.27 389.81,108.47 386.59,110.93 C383.45,113.28 376.12,116.40 372.24,117.26 C367.95,118.18 360.91,118.18 356.63,117.26 C352.75,116.39 345.42,113.26 342.28,110.91 C339.07,108.45 333.45,102.25 331.67,99.20 C329.93,96.13 327.39,88.14 326.88,84.12 C326.42,80.21 327.40,72.28 328.59,68.47 C329.94,64.29 333.46,58.18 336.40,54.91 C339.09,51.98 345.45,47.17 349.05,45.61 C352.78,44.05 360.94,42.27 364.46,42.25 Z" fill="none" stroke="rgb(255, 255, 255)" stroke-width="35.00" stroke-opacity="1.00" stroke-linejoin="round"/>
<path d="M439.35,191.86 C442.05,191.89 447.92,193.88 450.18,195.73 C452.63,197.82 455.34,202.38 455.97,205.49 C456.50,208.31 455.34,214.25 454.00,216.54 C452.63,218.80 447.92,222.75 445.14,223.72 C442.05,224.74 436.64,224.74 433.55,223.72 C430.77,222.75 426.06,218.80 424.69,216.54 C423.35,214.25 422.19,208.31 422.72,205.49 C423.35,202.38 426.06,197.82 428.51,195.73 C430.77,193.88 436.64,191.89 439.35,191.86 Z" fill="none" stroke="rgb(255, 255, 255)" stroke-width="35.00" stroke-opacity="1.00" stroke-linejoin="round"/>
<path d="M317.35,220.86 C320.05,220.89 325.92,222.88 328.18,224.73 C330.63,226.82 333.34,231.38 333.97,234.49 C334.50,237.31 333.34,243.25 332.00,245.54 C330.63,247.80 325.92,251.75 323.14,252.72 C320.05,253.74 314.64,253.74 311.55,252.72 C308.77,251.75 304.06,247.80 302.69,245.54 C301.35,243.25 300.19,237.31 300.72,234.49 C301.35,231.38 304.06,226.82 306.51,224.73 C308.77,222.88 314.64,220.89 317.35,220.86 Z" fill="none" stroke="rgb(255, 255, 255)" stroke-width="35.00" stroke-opacity="1.00" stroke-linejoin="round"/>
</g>
</svg>
